# xmcd
#
# Track frame offsets:
#	150
#	12527
#	32803
#	54108
#	70683
#	92944
#	106839
#	129640
#	151258
#	169806
#	189955
#	202755
#	223703
#	241657
#	262787
#	281135
#	302924
#
# Disc length: 4434 seconds
#
# Revision: 0
# Processed by: cddbd v1.4PL0 Copyright (c) Steve Scherf et al.
# Submitted via: dBpowerAMP V4.0
#
DISCID=e0115011
DTITLE=Sarah McLachlan - Full Of Grace
DYEAR=1900
DGENRE=Vocal
TTITLE0=Ice-Cream
TTITLE1=Angel
TTITLE2=I Love You
TTITLE3=Full Of Grace
TTITLE4=I Will Remember You
TTITLE5=When She Loved Me
TTITLE6=Good Enough
TTITLE7=Unchained Melody
TTITLE8=Building A Mystery
TTITLE9=Black
TTITLE10=Blue
TTITLE11=Possession
TTITLE12=Fear
TTITLE13=Elsewhere
TTITLE14=Adia
TTITLE15=Fumbling Towards Ecstasy
TTITLE16=Silence (Delerium feat Sarah McLachlan)
EXTD=
EXTT0=
EXTT1=
EXTT2=
EXTT3=
EXTT4=
EXTT5=
EXTT6=
EXTT7=
EXTT8=
EXTT9=
EXTT10=
EXTT11=
EXTT12=
EXTT13=
EXTT14=
EXTT15=
EXTT16=
PLAYORDER=
